Coordinates
version=1
nRows=14
nColumns=63
inDegrees=yes

Units are S.I. units (second, meters, Newtons, ...)
If the header above contains a line with 'inDegrees', this indicates whether rotational values are in degrees (yes) or radians (no).

endheader
time	pelvis_tilt	pelvis_list	pelvis_rotation	pelvis_tx	pelvis_ty	pelvis_tz	hip_flexion_r	hip_adduction_r	hip_rotation_r	knee_angle_r	knee_angle_r_beta	ankle_angle_r	subtalar_angle_r	mtp_angle_r	hip_flexion_l	hip_adduction_l	hip_rotation_l	knee_angle_l	knee_angle_l_beta	ankle_angle_l	subtalar_angle_l	mtp_angle_l	L5_S1_Flex_Ext	L5_S1_Lat_Bending	L5_S1_axial_rotation	L4_L5_Flex_Ext	L4_L5_Lat_Bending	L4_L5_axial_rotation	L3_L4_Flex_Ext	L3_L4_Lat_Bending	L3_L4_axial_rotation	L2_L3_Flex_Ext	L2_L3_Lat_Bending	L2_L3_axial_rotation	L1_L2_Flex_Ext	L1_L2_Lat_Bending	L1_L2_axial_rotation	L1_T12_Flex_Ext	L1_T12_Lat_Bending	L1_T12_axial_rotation	Abs_r3	Abs_r2	Abs_r1	Abs_t1	Abs_t2	neck_flexion	neck_bending	neck_rotation	arm_flex_r	arm_add_r	arm_rot_r	elbow_flex_r	pro_sup_r	wrist_flex_r	wrist_dev_r	arm_flex_l	arm_add_l	arm_rot_l	elbow_flex_l	pro_sup_l	wrist_flex_l	wrist_dev_l
1.016667	0.249336	0.435581	80.369638	0.280934	0.831722	0.660268	10.088064	0.150908	3.171592	17.821460	0.311043	30.225579	-14.659435	0.000000	4.144708	-0.537696	17.236548	8.829663	0.154107	24.236989	8.835990	0.000000	-0.306820	-0.620541	0.093393	-0.569796	-0.825319	0.099230	-0.504075	-1.508782	0.099230	-0.350665	-1.508782	0.081719	-0.284913	-1.265406	0.075882	-0.175317	-0.961217	0.070045	-2.191586	-7.019679	0.519423	0.000000	0.000000	16.047090	4.366126	-19.645058	14.851324	-5.778998	123.923597	3.055399	-4.667663	-8.352114	-23.505638	9.856692	-17.059893	141.986743	6.956463	3.336707	-10.495581	-4.647220
1.033333	0.397081	0.613940	80.837811	0.280821	0.833006	0.659609	9.344674	0.248341	3.004631	16.866094	0.294369	29.986306	-14.953131	0.000000	3.891337	-0.680499	17.664714	8.671839	0.151352	24.340714	8.900353	0.000000	-0.314147	-0.615668	-0.041390	-0.583402	-0.818838	-0.043977	-0.516111	-1.496934	-0.043977	-0.359038	-1.496934	-0.036216	-0.291716	-1.255469	-0.033629	-0.179503	-0.953669	-0.031042	-2.243917	-6.964555	-0.230198	0.000000	0.000000	15.527178	4.794096	-19.311992	14.986647	-5.645267	122.843435	3.161424	-2.528194	-8.256254	-23.291175	9.738837	-17.048833	141.640061	6.733561	3.419056	-10.777371	-5.103005
1.050000	0.534910	0.775524	81.280251	0.280570	0.834125	0.658907	8.633394	0.324136	2.802812	15.948507	0.278354	29.789602	-15.182762	0.000000	3.653386	-0.794820	18.210149	8.513193	0.148583	24.462609	8.841567	0.000000	-0.321143	-0.608476	-0.159327	-0.596395	-0.809273	-0.169285	-0.527606	-1.479448	-0.169285	-0.367034	-1.479448	-0.139411	-0.298213	-1.240803	-0.129453	-0.183501	-0.942529	-0.119495	-2.293892	-6.883197	-0.886130	0.000000	0.000000	15.086775	5.146442	-19.010841	14.799863	-5.712518	119.434347	4.033344	1.435229	-8.178610	-22.436808	9.628911	-16.970201	141.954692	6.425103	3.460101	-11.180849	-5.515806
1.066667	0.668306	0.922878	81.688073	0.280170	0.835088	0.658153	7.952748	0.391937	2.614190	15.082023	0.263231	29.573964	-15.399449	0.000000	3.422603	-0.883180	18.905212	8.356645	0.145851	24.553929	8.604966	0.000000	-0.327640	-0.598142	-0.262010	-0.608460	-0.795529	-0.278386	-0.538280	-1.454322	-0.278386	-0.374460	-1.454322	-0.229259	-0.304247	-1.219731	-0.212883	-0.187214	-0.926522	-0.196508	-2.340300	-6.766302	-1.457222	0.000000	0.000000	14.713702	5.408970	-18.752156	14.359631	-5.983492	114.104073	5.552673	6.945392	-8.161099	-21.135332	9.508446	-16.828798	142.703486	6.041142	3.479068	-11.647293	-5.900115
1.083333	0.784677	1.046641	82.050318	0.279656	0.835869	0.657450	7.346601	0.433244	2.380329	14.328000	0.250071	29.366509	-15.520849	0.000000	3.221326	-0.935741	19.691469	8.223898	0.143534	24.586369	8.230763	0.000000	-0.333667	-0.586321	-0.345051	-0.619653	-0.779806	-0.366617	-0.548182	-1.425580	-0.366617	-0.381348	-1.425580	-0.301920	-0.309843	-1.195625	-0.280354	-0.190657	-0.908211	-0.258788	-2.383351	-6.632576	-1.919071	0.000000	0.000000	14.426977	5.614123	-18.509696	13.702919	-6.424454	107.066377	7.687935	13.749090	-8.147021	-19.306844	9.409633	-16.619838	144.227300	5.565238	3.534036	-12.212644	-6.177435
1.100000	0.861739	1.135421	82.325050	0.279117	0.836443	0.656799	6.826035	0.445663	2.193120	13.666443	0.238524	29.180790	-15.550884	0.000000	3.061107	-0.943104	20.418133	8.118295	0.141691	24.572050	7.846368	0.000000	-0.336248	-0.575908	-0.399677	-0.624445	-0.765958	-0.424657	-0.552421	-1.400264	-0.424657	-0.384297	-1.400264	-0.349717	-0.312240	-1.174393	-0.324738	-0.192132	-0.892082	-0.299758	-2.401783	-6.514792	-2.222884	0.000000	0.000000	14.213969	5.747068	-18.341495	12.847952	-6.992370	98.635335	10.380905	21.572300	-8.141914	-17.000402	9.325722	-16.395318	145.808878	5.072195	3.602713	-12.798454	-6.464737
1.116667	0.904688	1.194162	82.544136	0.278553	0.836846	0.656235	6.391650	0.432023	2.061320	13.113548	0.228875	29.019184	-15.494914	0.000000	2.946554	-0.913271	21.046002	8.056245	0.140608	24.509324	7.510251	0.000000	-0.336674	-0.567113	-0.435319	-0.625238	-0.754260	-0.462527	-0.553122	-1.378878	-0.462527	-0.384785	-1.378878	-0.380904	-0.312636	-1.156456	-0.353697	-0.192376	-0.878458	-0.326490	-2.404830	-6.415294	-2.421116	0.000000	0.000000	14.076748	5.873803	-18.200155	11.880430	-7.672580	89.167845	13.490330	30.128122	-8.165831	-14.435417	9.268503	-16.167507	147.511481	4.572723	3.735355	-13.379142	-6.658662
1.133333	0.912565	1.211358	82.701537	0.277971	0.837071	0.655779	6.056732	0.392895	1.992508	12.660853	0.220974	28.904915	-15.307455	0.000000	2.899442	-0.853774	21.469422	8.054008	0.140569	24.427766	7.327963	0.000000	-0.333856	-0.559732	-0.445968	-0.620004	-0.744443	-0.473841	-0.548492	-1.360932	-0.473841	-0.381564	-1.360932	-0.390222	-0.310019	-1.141405	-0.362349	-0.190765	-0.867025	-0.334476	-2.384701	-6.331799	-2.480340	0.000000	0.000000	14.008786	5.952205	-18.170895	10.800164	-8.443487	78.838516	16.980886	39.159025	-8.192269	-11.627732	9.255470	-15.939970	149.151399	4.093439	3.904103	-13.911537	-6.801727
1.150000	0.894197	1.192125	82.803999	0.277386	0.837153	0.655412	5.800096	0.335857	1.995931	12.280349	0.214333	28.835397	-14.987901	0.000000	2.905680	-0.774012	21.714689	8.098993	0.141354	24.313790	7.252407	0.000000	-0.327808	-0.552755	-0.434415	-0.608773	-0.735165	-0.461566	-0.538556	-1.343969	-0.461566	-0.374652	-1.343969	-0.380113	-0.304403	-1.127179	-0.352962	-0.187310	-0.856218	-0.325811	-2.341503	-6.252880	-2.416084	0.000000	0.000000	13.987933	5.976374	-18.242922	9.635988	-9.293208	67.957009	20.762700	48.373298	-8.247683	-8.716903	9.281514	-15.710613	150.762991	3.629302	4.034074	-14.383546	-6.898971
1.166667	0.848558	1.130880	82.832671	0.276825	0.837109	0.655193	5.652213	0.259035	2.042722	12.009488	0.209605	28.799106	-14.511952	0.000000	2.980231	-0.675247	21.754350	8.202043	0.143153	24.157701	7.279108	0.000000	-0.318309	-0.546376	-0.400457	-0.591131	-0.726681	-0.425486	-0.522949	-1.328460	-0.425486	-0.363795	-1.328460	-0.350400	-0.295581	-1.114171	-0.325371	-0.181882	-0.846337	-0.300343	-2.273646	-6.180719	-2.227223	0.000000	0.000000	14.003039	5.919610	-18.468280	8.412834	-10.179355	56.771615	24.756025	57.508423	-8.291874	-5.728492	9.350903	-15.479560	152.262098	3.181916	4.139554	-14.791799	-6.997431
1.183333	0.777267	1.042004	82.821893	0.276286	0.836992	0.655087	5.564537	0.157507	2.099691	11.788228	0.205743	28.802353	-13.930800	0.000000	3.101396	-0.563869	21.603123	8.337146	0.145511	23.954843	7.480388	0.000000	-0.306224	-0.540956	-0.355060	-0.568688	-0.719471	-0.377251	-0.503095	-1.315280	-0.377251	-0.349983	-1.315280	-0.310677	-0.284359	-1.103117	-0.288486	-0.174976	-0.837940	-0.266295	-2.187324	-6.119400	-1.974737	0.000000	0.000000	14.038726	5.814710	-18.762722	7.162426	-11.093821	45.689633	28.845424	66.266128	-8.360956	-2.869876	9.451244	-15.266058	153.532994	2.767984	4.200176	-15.132367	-7.128890
1.200000	0.680958	0.924909	82.730026	0.275805	0.836828	0.655165	5.570850	0.029014	2.126444	11.665654	0.203604	28.820022	-13.219839	0.000000	3.276918	-0.442788	21.189030	8.510982	0.148545	23.722600	7.868085	0.000000	-0.291452	-0.536748	-0.297142	-0.541256	-0.713875	-0.315713	-0.478827	-1.305050	-0.315713	-0.333101	-1.305050	-0.259999	-0.270643	-1.094537	-0.241428	-0.166536	-0.831423	-0.222856	-2.081815	-6.071805	-1.652613	0.000000	0.000000	14.065986	5.639949	-19.154281	5.932053	-12.009715	35.004013	32.953424	74.361355	-8.446227	-0.173569	9.570868	-15.068999	154.550285	2.377852	4.208964	-15.428722	-7.325706
1.216667	0.586451	0.801353	82.624098	0.275336	0.836680	0.655351	5.594146	-0.103383	2.162993	11.553278	0.201643	28.810686	-12.536128	0.000000	3.469530	-0.327996	20.734270	8.689798	0.151666	23.454774	8.264071	0.000000	-0.276559	-0.531027	-0.245426	-0.513597	-0.706265	-0.260765	-0.454358	-1.291138	-0.260765	-0.316079	-1.291138	-0.214748	-0.256812	-1.082870	-0.199409	-0.158026	-0.822560	-0.184070	-1.975430	-6.007080	-1.364987	0.000000	0.000000	14.074999	5.439668	-19.509449	4.737971	-12.842611	25.306264	36.877177	81.465475	-8.407099	2.428372	9.686114	-14.898061	155.142327	2.037501	4.217083	-15.682027	-7.661449
1.233333	0.465966	0.691706	82.525367	0.274906	0.836621	0.655679	5.638632	-0.276769	2.145521	11.486371	0.200475	28.829077	-11.788829	0.000000	3.674156	-0.199449	20.116845	8.874061	0.154882	23.176899	8.860365	0.000000	-0.263611	-0.529808	-0.210881	-0.489551	-0.704645	-0.224061	-0.433086	-1.288176	-0.224061	-0.301281	-1.288176	-0.184521	-0.244789	-1.080385	-0.171341	-0.150627	-0.820673	-0.158161	-1.882944	-5.993298	-1.172858	0.000000	0.000000	14.036124	5.255383	-19.851763	3.678923	-13.579462	17.005092	40.441157	87.309396	-8.225929	4.642989	9.795833	-14.789029	155.459817	1.738789	4.232300	-15.914425	-8.096337
